<svg width="27" height="27" viewBox="0 0 27 27" fill="none" xmlns="http://www.w3.org/2000/svg">
<path d="M15.8994 2.60631C16.2328 2.68762 16.5584 2.78464 16.8767 2.89391C13.1682 2.42088 9.61595 4.79924 8.70918 8.51728C7.73491 12.5125 10.184 16.5414 14.1791 17.5158C18.1744 18.4902 22.2033 16.0411 23.1777 12.0459C23.4788 10.8113 23.4526 9.57363 23.1554 8.4238C24.2615 10.6612 24.6175 13.2848 23.9799 15.8994C22.5405 21.8015 16.5889 25.4193 10.6868 23.9799C4.78465 22.5404 1.1669 16.5889 2.60633 10.6868C4.04576 4.78463 9.99728 1.16689 15.8994 2.60631Z" fill="#C4CCD5"/>
<circle cx="19.5193" cy="6.51928" r="2.5" transform="rotate(0.443615 19.5193 6.51928)" fill="#E0BE71"/>
</svg>
